<svg xmlns="http://www.w3.org/2000/svg" viewBox="0 0 160 160" role="img" aria-label="Cadee logo">
  <defs>
    <linearGradient id="ear" x1="0" x2="1" y1="0" y2="1">
      <stop offset="0" stop-color="#AEE7D2"/>
      <stop offset="1" stop-color="#7ED6B2"/>
    </linearGradient>
    <linearGradient id="face" x1="0" x2="1" y1="0" y2="1">
      <stop offset="0" stop-color="#FFB180"/>
      <stop offset="1" stop-color="#F28D66"/>
    </linearGradient>
  </defs>
  <rect width="160" height="160" rx="48" fill="#F7FFF9"/>
  <path d="M34 54c-4-18 16-30 32-22l8 4-10 28c-5 12-23 7-30-10z" fill="url(#ear)"/>
  <path d="M126 54c4-18-16-30-32-22l-8 4 10 28c5 12 23 7 30-10z" fill="url(#ear)"/>
  <circle cx="80" cy="88" r="46" fill="url(#face)"/>
  <circle cx="80" cy="92" r="30" fill="#FFF4EA"/>
  <circle cx="64" cy="78" r="6" fill="#1A1A1A"/>
  <circle cx="96" cy="78" r="6" fill="#1A1A1A"/>
  <path d="M80 86c-5 0-8 4-8 7 0 3 3 6 8 6s8-3 8-6c0-3-3-7-8-7z" fill="#1A1A1A"/>
  <path d="M64 102c6 8 26 8 32 0" fill="none" stroke="#1A1A1A" stroke-linecap="round" stroke-width="4"/>
</svg>
